<svg xmlns="http://www.w3.org/2000/svg" viewBox="0 0 41 52"><path fill="#000" fill-rule="evenodd" d="M3.58 1L3.67 0.92L3.83 0.92L4 0.92L4.17 0.92L4.33 0.92L4.5 0.92L4.67 0.92L4.83 0.92L5 0.92L5.17 0.92L5.33 0.92L5.5 0.92L5.67 0.92L5.83 0.92L6 0.92L6.17 0.92L6.33 0.92L6.5 0.92L6.67 0.92L6.83 0.92L7 0.92L7.17 0.92L7.33 0.92L7.5 0.92L7.67 0.92L7.83 0.92L8 0.92L8.17 0.92L8.33 0.92L8.5 0.92L8.67 0.92L8.83 0.92L9 0.92L9.17 0.92L9.33 0.92L9.5 0.92L9.67 0.92L9.83 0.92L10 0.92L10.17 0.92L10.33 0.92L10.5 0.92L10.67 0.92L10.83 0.92L11 0.92L11.17 0.92L11.33 0.92L11.5 0.92L11.67 0.92L11.83 0.92L12 0.92L12.17 0.92L12.33 0.92L12.5 0.92L12.67 0.92L12.83 0.92L13 0.92L13.17 0.92L13.33 0.92L13.5 0.92L13.67 0.92L13.83 0.92L14 0.92L14.17 0.92L14.33 0.92L14.5 0.92L14.67 0.92L14.83 0.92L15 0.92L15.17 0.92L15.33 0.92L15.5 0.92L15.67 0.92L15.83 0.92L16 0.92L16.17 0.92L16.33 0.92L16.5 0.92L16.67 0.92L16.83 0.92L17 0.92L17.17 0.92L17.33 0.92L17.5 0.92L17.67 0.92L17.83 0.92L18 0.92L18.17 0.92L18.33 0.92L18.5 0.92L18.67 0.92L18.83 0.92L19 0.92L19.17 0.92L19.33 0.92L19.5 0.92L19.67 0.92L19.83 0.92L20 0.92L20.17 0.92L20.33 0.92L20.5 0.92L20.67 0.92L20.83 0.92L21 0.92L21.17 0.92L21.33 0.92L21.5 0.92L21.67 0.92L21.83 0.92L22 0.92L22.17 0.92L22.33 0.92L22.5 0.92L22.67 0.92L22.83 0.92L23 0.92L23.17 0.92L23.33 0.92L23.5 0.92L23.67 0.92L23.83 0.92L24 0.92L24.17 0.92L24.33 0.92L24.5 0.92L24.67 0.92L24.83 0.92L25 0.92L25.17 0.92L25.33 0.92L25.5 0.92L25.67 0.92L25.83 0.92L26 0.92L26.17 0.92L26.33 0.92L26.5 0.92L26.67 0.92L26.83 0.92L27 0.92L27.17 0.92L27.33 0.92L27.5 0.92L27.67 0.92L27.83 0.92L28 0.92L28.17 0.92L28.33 0.92L28.5 0.92L28.67 0.92L28.83 0.92L29 0.92L29.17 0.92L29.33 0.92L29.5 0.92L29.67 0.92L29.83 0.92L30 0.92L30.17 0.92L30.33 0.92L30.5 0.92L30.67 0.92L30.83 0.92L31 0.92L31.17 0.92L31.33 0.92L31.5 0.92L31.67 0.92L31.83 0.92L32 0.92L32.17 0.92L32.33 0.92L32.5 0.92L32.67 0.92L32.83 0.92L33 0.92L33.17 0.92L33.33 0.92L33.5 0.92L33.67 0.92L33.83 0.92L34 0.92L34.17 0.92L34.33 0.92L34.5 0.92L34.67 0.92L34.83 0.92L35 0.92L35.17 0.92L35.33 0.92L35.5 0.92L35.67 0.92L35.83 0.92L36 0.92L36.17 0.92L36.33 0.92L36.5 0.92L36.67 0.92L36.83 0.92L36.92 1L37 1.08L37.17 1.08L37.33 1.08L37.5 1.08L37.58 1.17L37.67 1.25L37.83 1.25L37.92 1.33L38 1.42L38.08 1.5L38.17 1.58L38.25 1.67L38.33 1.75L38.42 1.83L38.5 1.92L38.58 2L38.67 2.08L38.75 2.17L38.75 2.33L38.83 2.42L38.92 2.5L38.92 2.67L38.92 2.83L38.92 3L38.92 3.17L39 3.25L39.08 3.33L39.08 3.5L39.08 3.67L39.08 3.83L39.08 4L39.08 4.17L39.08 4.33L39.08 4.5L39.08 4.67L39.08 4.83L39.08 5L39.08 5.17L39.08 5.33L39.08 5.5L39.08 5.67L39.08 5.83L39.08 6L39.08 6.17L39.08 6.33L39.08 6.5L39.08 6.67L39.08 6.83L39.08 7L39.08 7.17L39.08 7.33L39.08 7.5L39.08 7.67L39.08 7.83L39.08 8L39 8.08L38.92 8.17L38.92 8.33L38.92 8.5L38.92 8.67L38.83 8.75L38.75 8.83L38.75 9L38.67 9.08L38.58 9.17L38.58 9.33L38.5 9.42L38.42 9.5L38.33 9.58L38.25 9.67L38.17 9.75L38.08 9.83L38 9.92L37.92 10L37.83 10.08L37.67 10.08L37.5 10.08L37.42 10.17L37.33 10.25L37.17 10.25L37 10.25L36.83 10.25L36.67 10.25L36.58 10.33L36.5 10.42L36.33 10.42L36.17 10.42L36 10.42L35.83 10.42L35.67 10.42L35.5 10.42L35.33 10.42L35.17 10.42L35 10.42L34.83 10.42L34.67 10.42L34.5 10.42L34.33 10.42L34.17 10.42L34 10.42L33.83 10.42L33.67 10.42L33.5 10.42L33.33 10.42L33.17 10.42L33 10.42L32.83 10.42L32.67 10.42L32.5 10.42L32.33 10.42L32.17 10.42L32 10.42L31.83 10.42L31.67 10.42L31.5 10.42L31.33 10.42L31.17 10.42L31 10.42L30.83 10.42L30.67 10.42L30.5 10.42L30.33 10.42L30.17 10.42L30 10.42L29.83 10.42L29.67 10.42L29.5 10.42L29.33 10.42L29.17 10.42L29 10.42L28.83 10.42L28.67 10.42L28.5 10.42L28.33 10.42L28.17 10.42L28 10.42L27.83 10.42L27.67 10.42L27.5 10.42L27.33 10.42L27.17 10.42L27 10.42L26.83 10.42L26.67 10.42L26.5 10.42L26.33 10.42L26.17 10.42L26 10.42L25.83 10.42L25.67 10.42L25.5 10.42L25.33 10.42L25.17 10.42L25 10.42L24.83 10.42L24.67 10.42L24.5 10.42L24.33 10.42L24.17 10.42L24 10.42L23.83 10.42L23.67 10.42L23.5 10.42L23.33 10.42L23.17 10.42L23 10.42L22.83 10.42L22.67 10.42L22.5 10.42L22.33 10.42L22.17 10.42L22 10.42L21.83 10.42L21.67 10.42L21.5 10.42L21.33 10.42L21.17 10.42L21 10.42L20.83 10.42L20.67 10.42L20.5 10.42L20.33 10.42L20.17 10.42L20 10.42L19.83 10.42L19.67 10.42L19.5 10.42L19.33 10.42L19.17 10.42L19 10.42L18.83 10.42L18.67 10.42L18.5 10.42L18.33 10.42L18.17 10.42L18 10.42L17.83 10.42L17.67 10.42L17.5 10.42L17.33 10.42L17.17 10.42L17 10.42L16.83 10.42L16.67 10.42L16.5 10.42L16.33 10.42L16.17 10.42L16 10.42L15.83 10.42L15.67 10.42L15.5 10.42L15.33 10.42L15.17 10.42L15 10.42L14.83 10.42L14.67 10.42L14.5 10.42L14.33 10.42L14.17 10.42L14 10.42L13.83 10.42L13.67 10.42L13.5 10.42L13.33 10.42L13.17 10.42L13 10.42L12.83 10.42L12.67 10.42L12.5 10.42L12.33 10.42L12.17 10.42L12 10.42L11.83 10.42L11.67 10.42L11.5 10.42L11.33 10.42L11.17 10.42L11 10.42L10.83 10.42L10.67 10.42L10.5 10.42L10.33 10.42L10.17 10.42L10 10.42L9.83 10.42L9.67 10.42L9.5 10.42L9.33 10.42L9.17 10.42L9 10.42L8.83 10.42L8.67 10.42L8.5 10.42L8.33 10.42L8.17 10.42L8 10.42L7.83 10.42L7.67 10.42L7.5 10.42L7.33 10.42L7.17 10.42L7 10.42L6.83 10.42L6.67 10.42L6.5 10.42L6.33 10.42L6.17 10.42L6 10.42L5.83 10.42L5.67 10.42L5.5 10.42L5.33 10.42L5.17 10.42L5 10.42L4.83 10.42L4.67 10.42L4.5 10.42L4.33 10.42L4.17 10.42L4 10.42L3.83 10.42L3.67 10.42L3.58 10.33L3.5 10.25L3.33 10.25L3.17 10.25L3 10.25L2.92 10.17L2.83 10.08L2.67 10.08L2.5 10.08L2.42 10L2.33 9.92L2.25 9.83L2.17 9.75L2 9.75L1.92 9.67L1.92 9.5L1.83 9.42L1.75 9.33L1.67 9.25L1.58 9.17L1.58 9L1.5 8.92L1.42 8.83L1.42 8.67L1.33 8.58L1.25 8.5L1.25 8.33L1.25 8.17L1.25 8L1.25 7.83L1.17 7.75L1.08 7.67L1.08 7.5L1.08 7.33L1.08 7.17L1.17 7.08L1.25 7L1.25 6.83L1.25 6.67L1.25 6.5L1.25 6.33L1.25 6.17L1.25 6L1.25 5.83L1.25 5.67L1.25 5.5L1.25 5.33L1.25 5.17L1.25 5L1.25 4.83L1.25 4.67L1.17 4.58L1.08 4.5L1.08 4.33L1.17 4.25L1.25 4.17L1.25 4L1.25 3.83L1.25 3.67L1.25 3.5L1.25 3.33L1.25 3.17L1.25 3L1.25 2.83L1.25 2.67L1.33 2.58L1.42 2.5L1.42 2.33L1.5 2.25L1.58 2.17L1.67 2.08L1.75 2L1.83 1.92L1.92 1.83L2 1.75L2.08 1.67L2.17 1.58L2.25 1.5L2.33 1.42L2.42 1.33L2.5 1.25L2.67 1.25L2.75 1.17L2.83 1.08L3 1.08L3.17 1.08L3.33 1.08L3.5 1.08ZM4.75 21L4.83 20.92L5 20.92L5.17 20.92L5.33 20.92L5.5 20.92L5.58 21L5.67 21.08L5.83 21.08L6 21.08L6.17 21.08L6.33 21.08L6.5 21.08L6.67 21.08L6.83 21.08L7 21.08L7.17 21.08L7.33 21.08L7.5 21.08L7.67 21.08L7.83 21.08L8 21.08L8.17 21.08L8.33 21.08L8.5 21.08L8.67 21.08L8.83 21.08L9 21.08L9.17 21.08L9.33 21.08L9.5 21.08L9.67 21.08L9.83 21.08L10 21.08L10.17 21.08L10.33 21.08L10.5 21.08L10.67 21.08L10.83 21.08L11 21.08L11.17 21.08L11.33 21.08L11.5 21.08L11.67 21.08L11.83 21.08L12 21.08L12.17 21.08L12.33 21.08L12.5 21.08L12.67 21.08L12.83 21.08L13 21.08L13.17 21.08L13.33 21.08L13.5 21.08L13.67 21.08L13.83 21.08L14 21.08L14.17 21.08L14.33 21.08L14.5 21.08L14.67 21.08L14.83 21.08L15 21.08L15.17 21.08L15.33 21.08L15.5 21.08L15.67 21.08L15.83 21.08L16 21.08L16.17 21.08L16.33 21.08L16.5 21.08L16.67 21.08L16.83 21.08L17 21.08L17.17 21.08L17.33 21.08L17.5 21.08L17.67 21.08L17.83 21.08L18 21.08L18.17 21.08L18.33 21.08L18.5 21.08L18.67 21.08L18.83 21.08L19 21.08L19.17 21.08L19.33 21.08L19.5 21.08L19.67 21.08L19.83 21.08L20 21.08L20.17 21.08L20.33 21.08L20.5 21.08L20.67 21.08L20.83 21.08L21 21.08L21.17 21.08L21.33 21.08L21.5 21.08L21.67 21.08L21.83 21.08L22 21.08L22.17 21.08L22.33 21.08L22.5 21.08L22.67 21.08L22.83 21.08L23 21.08L23.17 21.08L23.33 21.08L23.5 21.08L23.67 21.08L23.83 21.08L24 21.08L24.17 21.08L24.33 21.08L24.5 21.08L24.67 21.08L24.83 21.08L25 21.08L25.17 21.08L25.33 21.08L25.5 21.08L25.67 21.08L25.83 21.08L26 21.08L26.17 21.08L26.33 21.08L26.5 21.08L26.67 21.08L26.83 21.08L27 21.08L27.17 21.08L27.33 21.08L27.5 21.08L27.67 21.08L27.83 21.08L28 21.08L28.17 21.08L28.33 21.08L28.5 21.08L28.67 21.08L28.83 21.08L29 21.08L29.17 21.08L29.33 21.08L29.5 21.08L29.67 21.08L29.83 21.08L30 21.08L30.17 21.08L30.33 21.08L30.5 21.08L30.67 21.08L30.83 21.08L31 21.08L31.17 21.08L31.33 21.08L31.5 21.08L31.67 21.08L31.83 21.08L32 21.08L32.17 21.08L32.33 21.08L32.5 21.08L32.67 21.08L32.83 21.08L33 21.08L33.17 21.08L33.33 21.08L33.5 21.08L33.67 21.08L33.83 21.08L34 21.08L34.17 21.08L34.33 21.08L34.42 21.17L34.5 21.25L34.67 21.25L34.83 21.25L34.92 21.33L35 21.42L35.08 21.5L35.17 21.58L35.25 21.67L35.33 21.75L35.42 21.83L35.42 22L35.5 22.08L35.58 22.17L35.67 22.25L35.75 22.33L35.75 22.5L35.83 22.58L35.92 22.67L35.92 22.83L35.92 23L35.92 23.17L36 23.25L36.08 23.33L36.08 23.5L36.08 23.67L36.08 23.83L36.08 24L36.08 24.17L36.08 24.33L36.08 24.5L36.08 24.67L36.08 24.83L36.08 25L36.08 25.17L36.08 25.33L36.08 25.5L36.08 25.67L36.08 25.83L36.08 26L36.08 26.17L36.08 26.33L36.08 26.5L36.08 26.67L36.08 26.83L36.08 27L36.08 27.17L36.08 27.33L36.08 27.5L36.08 27.67L36.08 27.83L36.08 28L36.08 28.17L36.08 28.33L36 28.42L35.92 28.5L35.92 28.67L35.92 28.83L35.83 28.92L35.75 29L35.75 29.17L35.67 29.25L35.58 29.33L35.5 29.42L35.42 29.5L35.33 29.58L35.25 29.67L35.17 29.75L35.08 29.83L35 29.92L34.92 30L34.83 30.08L34.75 30.17L34.67 30.25L34.5 30.25L34.33 30.25L34.25 30.33L34.17 30.42L34 30.42L33.83 30.42L33.67 30.42L33.5 30.42L33.33 30.42L33.17 30.42L33 30.42L32.83 30.42L32.67 30.42L32.5 30.42L32.33 30.42L32.17 30.42L32 30.42L31.83 30.42L31.67 30.42L31.5 30.42L31.33 30.42L31.17 30.42L31 30.42L30.83 30.42L30.67 30.42L30.5 30.42L30.33 30.42L30.17 30.42L30 30.42L29.83 30.42L29.67 30.42L29.5 30.42L29.33 30.42L29.17 30.42L29 30.42L28.83 30.42L28.67 30.42L28.5 30.42L28.33 30.42L28.17 30.42L28 30.42L27.83 30.42L27.67 30.42L27.5 30.42L27.33 30.42L27.17 30.42L27 30.42L26.83 30.42L26.67 30.42L26.5 30.42L26.33 30.42L26.17 30.42L26 30.42L25.83 30.42L25.67 30.42L25.5 30.42L25.33 30.42L25.17 30.42L25 30.42L24.83 30.42L24.67 30.42L24.5 30.42L24.33 30.42L24.17 30.42L24 30.42L23.83 30.42L23.67 30.42L23.5 30.42L23.33 30.42L23.17 30.42L23 30.42L22.83 30.42L22.67 30.42L22.5 30.42L22.33 30.42L22.17 30.42L22 30.42L21.83 30.42L21.67 30.42L21.5 30.42L21.33 30.42L21.17 30.42L21 30.42L20.83 30.42L20.67 30.42L20.5 30.42L20.33 30.42L20.17 30.42L20 30.42L19.83 30.42L19.67 30.42L19.5 30.42L19.33 30.42L19.17 30.42L19 30.42L18.83 30.42L18.67 30.42L18.5 30.42L18.33 30.42L18.17 30.42L18 30.42L17.83 30.42L17.67 30.42L17.5 30.42L17.33 30.42L17.17 30.42L17 30.42L16.83 30.42L16.67 30.42L16.5 30.42L16.33 30.42L16.17 30.42L16 30.42L15.83 30.42L15.67 30.42L15.5 30.42L15.33 30.42L15.17 30.42L15 30.42L14.83 30.42L14.67 30.42L14.5 30.42L14.33 30.42L14.17 30.42L14 30.42L13.83 30.42L13.67 30.42L13.5 30.42L13.33 30.42L13.17 30.42L13 30.42L12.83 30.42L12.67 30.42L12.5 30.42L12.33 30.42L12.17 30.42L12 30.42L11.83 30.42L11.67 30.42L11.5 30.42L11.33 30.42L11.17 30.42L11 30.42L10.83 30.42L10.67 30.42L10.5 30.42L10.33 30.42L10.17 30.42L10 30.42L9.83 30.42L9.67 30.42L9.5 30.42L9.33 30.42L9.17 30.42L9 30.42L8.83 30.42L8.67 30.42L8.5 30.42L8.33 30.42L8.17 30.42L8 30.42L7.83 30.42L7.67 30.42L7.5 30.42L7.33 30.42L7.17 30.42L7 30.42L6.83 30.42L6.67 30.42L6.5 30.42L6.33 30.42L6.17 30.42L6 30.42L5.83 30.42L5.67 30.42L5.5 30.42L5.33 30.42L5.17 30.42L5 30.42L4.83 30.42L4.67 30.42L4.5 30.42L4.33 30.42L4.17 30.42L4 30.42L3.83 30.42L3.67 30.42L3.5 30.42L3.42 30.33L3.33 30.25L3.17 30.25L3 30.25L2.83 30.25L2.75 30.17L2.67 30.08L2.5 30.08L2.42 30L2.33 29.92L2.25 29.83L2.17 29.75L2.08 29.67L2 29.58L1.92 29.5L1.83 29.42L1.75 29.33L1.67 29.25L1.58 29.17L1.5 29.08L1.42 29L1.42 28.83L1.33 28.75L1.25 28.67L1.25 28.5L1.25 28.33L1.25 28.17L1.25 28L1.25 27.83L1.25 27.67L1.25 27.5L1.25 27.33L1.25 27.17L1.25 27L1.25 26.83L1.25 26.67L1.25 26.5L1.25 26.33L1.25 26.17L1.17 26.08L1.08 26L1.08 25.83L1.08 25.67L1.08 25.5L1.08 25.33L1.17 25.25L1.25 25.17L1.25 25L1.25 24.83L1.25 24.67L1.25 24.5L1.25 24.33L1.25 24.17L1.25 24L1.25 23.83L1.17 23.75L1.08 23.67L1.17 23.58L1.25 23.5L1.25 23.33L1.25 23.17L1.25 23L1.25 22.83L1.25 22.67L1.33 22.58L1.42 22.5L1.42 22.33L1.5 22.25L1.58 22.17L1.67 22.08L1.75 22L1.83 21.92L1.92 21.83L2 21.75L2.08 21.67L2.17 21.58L2.25 21.5L2.33 21.42L2.5 21.42L2.58 21.33L2.67 21.25L2.83 21.25L2.92 21.17L3 21.08L3.17 21.08L3.33 21.08L3.5 21.08L3.67 21.08L3.83 21.08L4 21.08L4.17 21.08L4.33 21.08L4.5 21.08L4.67 21.08ZM8.08 41L8.17 40.92L8.33 40.92L8.5 40.92L8.67 40.92L8.83 40.92L9 40.92L9.17 40.92L9.33 40.92L9.5 40.92L9.67 40.92L9.83 40.92L10 40.92L10.17 40.92L10.33 40.92L10.5 40.92L10.67 40.92L10.83 40.92L11 40.92L11.17 40.92L11.33 40.92L11.5 40.92L11.67 40.92L11.83 40.92L12 40.92L12.17 40.92L12.33 40.92L12.5 40.92L12.67 40.92L12.83 40.92L13 40.92L13.17 40.92L13.33 40.92L13.5 40.92L13.67 40.92L13.83 40.92L14 40.92L14.17 40.92L14.33 40.92L14.5 40.92L14.67 40.92L14.83 40.92L15 40.92L15.17 40.92L15.33 40.92L15.5 40.92L15.67 40.92L15.83 40.92L16 40.92L16.17 40.92L16.33 40.92L16.5 40.92L16.67 40.92L16.83 40.92L17 40.92L17.17 40.92L17.33 40.92L17.5 40.92L17.67 40.92L17.83 40.92L18 40.92L18.17 40.92L18.33 40.92L18.5 40.92L18.67 40.92L18.83 40.92L19 40.92L19.17 40.92L19.33 40.92L19.5 40.92L19.67 40.92L19.83 40.92L20 40.92L20.17 40.92L20.33 40.92L20.5 40.92L20.67 40.92L20.83 40.92L21 40.92L21.17 40.92L21.33 40.92L21.5 40.92L21.67 40.92L21.83 40.92L22 40.92L22.17 40.92L22.33 40.92L22.5 40.92L22.67 40.92L22.83 40.92L23 40.92L23.17 40.92L23.33 40.92L23.5 40.92L23.67 40.92L23.83 40.92L24 40.92L24.17 40.92L24.33 40.92L24.5 40.92L24.67 40.92L24.83 40.92L25 40.92L25.17 40.92L25.33 40.92L25.5 40.92L25.67 40.92L25.83 40.92L26 40.92L26.17 40.92L26.33 40.92L26.5 40.92L26.67 40.92L26.83 40.92L27 40.92L27.17 40.92L27.33 40.92L27.5 40.92L27.67 40.92L27.83 40.92L28 40.92L28.17 40.92L28.33 40.92L28.5 40.92L28.67 40.92L28.83 40.92L29 40.92L29.17 40.92L29.33 40.92L29.5 40.92L29.67 40.92L29.83 40.92L30 40.92L30.17 40.92L30.33 40.92L30.5 40.92L30.67 40.92L30.83 40.92L31 40.92L31.17 40.92L31.33 40.92L31.5 40.92L31.67 40.92L31.83 40.92L32 40.92L32.17 40.92L32.33 40.92L32.5 40.92L32.67 40.92L32.83 40.92L33 40.92L33.17 40.92L33.33 40.92L33.5 40.92L33.67 40.92L33.75 41L33.83 41.08L34 41.08L34.17 41.08L34.33 41.08L34.5 41.08L34.67 41.08L34.83 41.08L35 41.08L35.08 41L35.17 40.92L35.33 40.92L35.5 40.92L35.67 40.92L35.83 40.92L36 40.92L36.17 40.92L36.33 40.92L36.42 41L36.5 41.08L36.67 41.08L36.83 41.08L37 41.08L37.08 41.17L37.17 41.25L37.33 41.25L37.5 41.25L37.58 41.33L37.67 41.42L37.83 41.42L37.92 41.5L38 41.58L38.08 41.67L38.17 41.75L38.25 41.83L38.33 41.92L38.42 42L38.5 42.08L38.58 42.17L38.67 42.25L38.75 42.33L38.75 42.5L38.83 42.58L38.92 42.67L38.92 42.83L38.92 43L38.92 43.17L38.92 43.33L39 43.42L39.08 43.5L39.08 43.67L39.08 43.83L39.08 44L39.08 44.17L39.08 44.33L39.08 44.5L39.08 44.67L39.08 44.83L39.08 45L39.08 45.17L39.08 45.33L39.08 45.5L39.08 45.67L39.08 45.83L39.08 46L39.08 46.17L39.08 46.33L39.08 46.5L39.08 46.67L39.08 46.83L39.08 47L39.08 47.17L39.08 47.33L39.08 47.5L39.08 47.67L39.08 47.83L39.08 48L39 48.08L38.92 48.17L38.92 48.33L38.92 48.5L38.92 48.67L38.92 48.83L38.83 48.92L38.75 49L38.75 49.17L38.67 49.25L38.58 49.33L38.58 49.5L38.5 49.58L38.42 49.67L38.33 49.75L38.17 49.75L38.08 49.83L38 49.92L37.92 50L37.83 50.08L37.67 50.08L37.58 50.17L37.5 50.25L37.42 50.33L37.33 50.42L37.17 50.42L37.08 50.5L37 50.58L36.83 50.58L36.75 50.67L36.67 50.75L36.5 50.75L36.33 50.75L36.17 50.75L36 50.75L35.83 50.75L35.67 50.75L35.5 50.75L35.33 50.75L35.17 50.75L35 50.75L34.83 50.75L34.67 50.75L34.5 50.75L34.33 50.75L34.17 50.75L34 50.75L33.83 50.75L33.67 50.75L33.5 50.75L33.33 50.75L33.17 50.75L33 50.75L32.83 50.75L32.67 50.75L32.5 50.75L32.33 50.75L32.17 50.75L32 50.75L31.83 50.75L31.67 50.75L31.5 50.75L31.33 50.75L31.17 50.75L31 50.75L30.83 50.75L30.67 50.75L30.5 50.75L30.33 50.75L30.17 50.75L30 50.75L29.83 50.75L29.67 50.75L29.5 50.75L29.33 50.75L29.17 50.75L29 50.75L28.83 50.75L28.67 50.75L28.5 50.75L28.33 50.75L28.17 50.75L28 50.75L27.83 50.75L27.67 50.75L27.5 50.75L27.33 50.75L27.17 50.75L27 50.75L26.83 50.75L26.67 50.75L26.5 50.75L26.33 50.75L26.17 50.75L26 50.75L25.83 50.75L25.67 50.75L25.5 50.75L25.33 50.75L25.17 50.75L25 50.75L24.83 50.75L24.67 50.75L24.5 50.75L24.33 50.75L24.17 50.75L24 50.75L23.83 50.75L23.67 50.75L23.5 50.75L23.33 50.75L23.17 50.75L23 50.75L22.83 50.75L22.67 50.75L22.5 50.75L22.33 50.75L22.17 50.75L22 50.75L21.83 50.75L21.67 50.75L21.5 50.75L21.33 50.75L21.17 50.75L21 50.75L20.83 50.75L20.67 50.75L20.5 50.75L20.33 50.75L20.17 50.75L20 50.75L19.83 50.75L19.67 50.75L19.5 50.75L19.33 50.75L19.17 50.75L19 50.75L18.83 50.75L18.67 50.75L18.5 50.75L18.33 50.75L18.17 50.75L18 50.75L17.83 50.75L17.67 50.75L17.5 50.75L17.33 50.75L17.17 50.75L17 50.75L16.83 50.75L16.67 50.75L16.5 50.75L16.33 50.75L16.17 50.75L16 50.75L15.83 50.75L15.67 50.75L15.5 50.75L15.33 50.75L15.17 50.75L15 50.75L14.83 50.75L14.67 50.75L14.5 50.75L14.33 50.75L14.17 50.75L14 50.75L13.83 50.75L13.67 50.75L13.5 50.75L13.33 50.75L13.17 50.75L13 50.75L12.83 50.75L12.67 50.75L12.5 50.75L12.33 50.75L12.17 50.75L12 50.75L11.83 50.75L11.67 50.75L11.5 50.75L11.33 50.75L11.17 50.75L11 50.75L10.83 50.75L10.67 50.75L10.5 50.75L10.33 50.75L10.17 50.75L10 50.75L9.83 50.75L9.67 50.75L9.5 50.75L9.33 50.75L9.17 50.75L9 50.75L8.83 50.75L8.67 50.75L8.5 50.75L8.33 50.75L8.17 50.75L8 50.75L7.83 50.75L7.67 50.75L7.5 50.75L7.33 50.75L7.17 50.75L7 50.75L6.83 50.75L6.67 50.75L6.5 50.75L6.33 50.75L6.17 50.75L6 50.75L5.83 50.75L5.67 50.75L5.5 50.75L5.33 50.75L5.17 50.75L5 50.75L4.83 50.75L4.67 50.75L4.5 50.75L4.33 50.75L4.17 50.75L4 50.75L3.83 50.75L3.67 50.75L3.5 50.75L3.42 50.67L3.33 50.58L3.17 50.58L3.08 50.5L3 50.42L2.92 50.33L2.83 50.25L2.67 50.25L2.58 50.17L2.5 50.08L2.42 50L2.33 49.92L2.17 49.92L2.08 49.83L2 49.75L1.92 49.67L1.83 49.58L1.75 49.5L1.67 49.42L1.58 49.33L1.5 49.25L1.42 49.17L1.42 49L1.42 48.83L1.33 48.75L1.25 48.67L1.25 48.5L1.25 48.33L1.25 48.17L1.25 48L1.25 47.83L1.25 47.67L1.25 47.5L1.25 47.33L1.25 47.17L1.25 47L1.25 46.83L1.25 46.67L1.25 46.5L1.25 46.33L1.25 46.17L1.25 46L1.25 45.83L1.25 45.67L1.25 45.5L1.25 45.33L1.25 45.17L1.25 45L1.25 44.83L1.25 44.67L1.25 44.5L1.25 44.33L1.25 44.17L1.25 44L1.25 43.83L1.25 43.67L1.25 43.5L1.25 43.33L1.25 43.17L1.25 43L1.25 42.83L1.33 42.75L1.42 42.67L1.42 42.5L1.5 42.42L1.58 42.33L1.58 42.17L1.67 42.08L1.75 42L1.83 41.92L1.92 41.83L2 41.75L2.08 41.67L2.17 41.58L2.33 41.58L2.42 41.5L2.5 41.42L2.58 41.33L2.67 41.25L2.83 41.25L3 41.25L3.08 41.17L3.17 41.08L3.33 41.08L3.5 41.08L3.67 41.08L3.83 41.08L4 41.08L4.17 41.08L4.33 41.08L4.5 41.08L4.67 41.08L4.83 41.08L5 41.08L5.17 41.08L5.33 41.08L5.5 41.08L5.67 41.08L5.83 41.08L6 41.08L6.17 41.08L6.33 41.08L6.5 41.08L6.67 41.08L6.83 41.08L7 41.08L7.17 41.08L7.33 41.08L7.5 41.08L7.67 41.08L7.83 41.08L8 41.08Z"></path></svg>